<?xml version="1.0" encoding="UTF-8" standalone="no"?>
<!-- Created with Inkscape (http://www.inkscape.org/) -->

<svg
  height="20.690729mm"
  id="svg5"
  inkscape:version="1.2.2 (732a01da63, 2022-12-09)"
  sodipodi:docname="headerLine.svg"
  version="1.1"
  viewBox="0 0 505.88671 20.69073"
  width="505.88672mm"
  xml:space="preserve"
  xmlns="http://www.w3.org/2000/svg"
  xmlns:inkscape="http://www.inkscape.org/namespaces/inkscape"
  xmlns:sodipodi="http://sodipodi.sourceforge.net/DTD/sodipodi-0.dtd"
><sodipodi:namedview
     bordercolor="#000000"
     borderopacity="0.25"
     id="namedview7"
     inkscape:current-layer="layer1"
     inkscape:cx="1908.3022"
     inkscape:cy="16.705014"
     inkscape:deskcolor="#d1d1d1"
     inkscape:document-units="mm"
     inkscape:pagecheckerboard="0"
     inkscape:pageopacity="0.0"
     inkscape:showpageshadow="2"
     inkscape:window-height="991"
     inkscape:window-maximized="1"
     inkscape:window-width="1920"
     inkscape:window-x="2391"
     inkscape:window-y="-9"
     inkscape:zoom="16.791366"
     pagecolor="#ffffff"
     showgrid="false" />
  <defs
    id="defs2"/>
  <g
    id="layer1"
    inkscape:groupmode="layer"
    inkscape:label="Warstwa 1"
    transform="translate(133.82449,-293.4017)"><path
       d="m -133.8244,296.22403 0.2117,5e-5 c 0.22287,0.0279 0.40212,0.24194 0.40212,0.24194 0,0 3.309,3.94327 6.8701,3.99047 3.56111,0.0474 136.653506,0.0394 136.653506,0.0394 0,0 5.601651,0.54364 9.225786,3.26961 3.624134,2.72598 9.438505,7.16947 9.438505,7.16947 0,0 3.844735,2.61566 7.831283,2.69446 3.986549,0.0785 164.41514,0.0835 164.41514,0.0835 0,0 4.958,-0.635 7.65246,-2.3998 2.69447,-1.7648 11.5117,-8.09593 11.5117,-8.09593 0,0 4.38993,-2.49579 7.59882,-2.62951 3.20888,-0.13367 135.15194,-0.15597 135.15194,-0.15597 0,0 5.30604,-1.17009 6.84115,-3.83284 1.44842,-2.51243 1.49302,-2.60723 1.49302,-2.60723 0,0 0.25514,-0.21045 0.42227,-0.21045 0.16713,0 0.16713,0 0.16713,0"
       id="path351"
       inkscape:label="path351"
       sodipodi:nodetypes="cscscscccsccccc"
       style="fill:none;stroke:#ffffff;stroke-width:0.759;stroke-linejoin:round;stroke-opacity:1;paint-order:markers fill stroke" />
    <path
      d="m 52.313593,302.53643 132.139097,0.0315 -0.0867,-0.0527"
      id="path961"
      style="fill:none;stroke:#ffffff;stroke-width:0.759;stroke-linejoin:round;stroke-opacity:1;paint-order:markers fill stroke"/>
    <text
      id="text1017"
      style="font-style:normal;font-variant:normal;font-weight:normal;font-stretch:normal;font-size:4.57236px;font-family:'Segoe Fluent Icons';-inkscape-font-specification:'Segoe Fluent Icons, Normal';font-variant-ligatures:normal;font-variant-caps:normal;font-variant-numeric:normal;font-variant-east-asian:normal;fill:#ffffff;fill-opacity:1;stroke:#ffffff;stroke-width:0.270066;stroke-linejoin:round;stroke-opacity:1;paint-order:markers fill stroke"
      transform="scale(1.0586281,0.94461878)"
      x="94.467903"
      xml:space="preserve"
      y="328.07684"><tspan
         id="tspan1015"
         sodipodi:role="line"
         style="font-style:normal;font-variant:normal;font-weight:normal;font-stretch:normal;font-size:4.57236px;font-family:'Segoe Fluent Icons';-inkscape-font-specification:'Segoe Fluent Icons, Normal';font-variant-ligatures:normal;font-variant-caps:normal;font-variant-numeric:normal;font-variant-east-asian:normal;fill:#ffffff;fill-opacity:1;stroke:#ffffff;stroke-width:0.270066;stroke-opacity:1"
         x="94.467903"
         y="328.07684">SCROLL DOWN</tspan></text></g></svg>
